<?xml version="1.0" encoding="UTF-8" standalone="no"?>
<!-- Created with Inkscape (http://www.inkscape.org/) -->

<svg
   xmlns:dc="http://purl.org/dc/elements/1.1/"
   xmlns:cc="http://creativecommons.org/ns#"
   xmlns:rdf="http://www.w3.org/1999/02/22-rdf-syntax-ns#"
   xmlns:svg="http://www.w3.org/2000/svg"
   xmlns="http://www.w3.org/2000/svg"
   xmlns:xlink="http://www.w3.org/1999/xlink"
   xmlns:sodipodi="http://sodipodi.sourceforge.net/DTD/sodipodi-0.dtd"
   xmlns:inkscape="http://www.inkscape.org/namespaces/inkscape"
   width="210mm"
   height="297mm"
   viewBox="0 0 210 297"
   version="1.1"
   id="svg8"
   inkscape:version="0.92.0 r15299"
   sodipodi:docname="drawing.svg">
  <defs
     id="defs2">
    <linearGradient
       inkscape:collect="always"
       id="linearGradient4824">
      <stop
         style="stop-color:#500000;stop-opacity:1"
         offset="0"
         id="stop4820" />
      <stop
         style="stop-color:#005050;stop-opacity:1"
         offset="1"
         id="stop4822" />
    </linearGradient>
    <linearGradient
       inkscape:collect="always"
       id="linearGradient4753">
      <stop
         style="stop-color:#00ffff;stop-opacity:0"
         offset="0"
         id="stop4747" />
      <stop
         id="stop4749"
         offset="0.87658417"
         style="stop-color:#1c9f9f;stop-opacity:0" />
      <stop
         style="stop-color:#00ffff;stop-opacity:1"
         offset="1"
         id="stop4751" />
    </linearGradient>
    <linearGradient
       id="linearGradient4745"
       inkscape:collect="always">
      <stop
         id="stop4739"
         offset="0"
         style="stop-color:#005050;stop-opacity:0" />
      <stop
         style="stop-color:#1c9f9f;stop-opacity:0"
         offset="0.87658417"
         id="stop4741" />
      <stop
         id="stop4743"
         offset="1"
         style="stop-color:#005050;stop-opacity:1" />
    </linearGradient>
    <linearGradient
       id="linearGradient4725"
       inkscape:collect="always">
      <stop
         id="stop4719"
         offset="0"
         style="stop-color:#500000;stop-opacity:0" />
      <stop
         style="stop-color:#1c9f9f;stop-opacity:0"
         offset="0.87658417"
         id="stop4721" />
      <stop
         id="stop4723"
         offset="1"
         style="stop-color:#ff8e8e;stop-opacity:1" />
    </linearGradient>
    <linearGradient
       inkscape:collect="always"
       id="linearGradient4699">
      <stop
         style="stop-color:#500000;stop-opacity:0"
         offset="0"
         id="stop4695" />
      <stop
         id="stop4709"
         offset="0.87658417"
         style="stop-color:#1c9f9f;stop-opacity:0" />
      <stop
         style="stop-color:#500000;stop-opacity:1"
         offset="1"
         id="stop4697" />
    </linearGradient>
    <linearGradient
       inkscape:collect="always"
       id="linearGradient4665">
      <stop
         style="stop-color:#ff8e8e;stop-opacity:1"
         offset="0"
         id="stop4661" />
      <stop
         id="stop4669"
         offset="0.52472192"
         style="stop-color:#ff6b6b;stop-opacity:1" />
      <stop
         style="stop-color:#ff4848;stop-opacity:1"
         offset="1"
         id="stop4663" />
    </linearGradient>
    <linearGradient
       inkscape:collect="always"
       id="linearGradient4657">
      <stop
         style="stop-color:#00ffff;stop-opacity:1"
         offset="0"
         id="stop4653" />
      <stop
         style="stop-color:#00b9b9;stop-opacity:1"
         offset="1"
         id="stop4655" />
    </linearGradient>
    <linearGradient
       inkscape:collect="always"
       id="linearGradient4649">
      <stop
         style="stop-color:#ff8e8e;stop-opacity:1"
         offset="0"
         id="stop4645" />
      <stop
         style="stop-color:#ff0000;stop-opacity:1"
         offset="1"
         id="stop4647" />
    </linearGradient>
    <linearGradient
       inkscape:collect="always"
       id="linearGradient4595">
      <stop
         style="stop-color:#ff8e8e;stop-opacity:1;"
         offset="0"
         id="stop4591" />
      <stop
         style="stop-color:#ff8e8e;stop-opacity:0;"
         offset="1"
         id="stop4593" />
    </linearGradient>
    <linearGradient
       inkscape:collect="always"
       id="linearGradient4549">
      <stop
         style="stop-color:#00ffff;stop-opacity:1"
         offset="0"
         id="stop4545" />
      <stop
         id="stop4553"
         offset="0.50097764"
         style="stop-color:#00dcdc;stop-opacity:1" />
      <stop
         style="stop-color:#00b9b9;stop-opacity:1"
         offset="1"
         id="stop4547" />
    </linearGradient>
    <linearGradient
       inkscape:collect="always"
       xlink:href="#linearGradient4549"
       id="linearGradient4551"
       x1="39.601658"
       y1="64.049332"
       x2="48.463657"
       y2="73.687729"
       gradientUnits="userSpaceOnUse" />
    <linearGradient
       inkscape:collect="always"
       xlink:href="#linearGradient4549"
       id="linearGradient4561"
       x1="39.251354"
       y1="83.490456"
       x2="48.248383"
       y2="94.01368"
       gradientUnits="userSpaceOnUse" />
    <linearGradient
       inkscape:collect="always"
       xlink:href="#linearGradient4595"
       id="linearGradient4597"
       x1="34.240555"
       y1="67.757622"
       x2="58.45818"
       y2="78.340954"
       gradientUnits="userSpaceOnUse" />
    <linearGradient
       inkscape:collect="always"
       xlink:href="#linearGradient4649"
       id="linearGradient4651"
       x1="126.45934"
       y1="224.87604"
       x2="199.83211"
       y2="368.82278"
       gradientUnits="userSpaceOnUse" />
    <linearGradient
       inkscape:collect="always"
       xlink:href="#linearGradient4657"
       id="linearGradient4659"
       x1="207.92256"
       y1="220.33426"
       x2="260.04935"
       y2="375.39267"
       gradientUnits="userSpaceOnUse" />
    <linearGradient
       inkscape:collect="always"
       xlink:href="#linearGradient4665"
       id="linearGradient4667"
       x1="56.734337"
       y1="82.083092"
       x2="67.269707"
       y2="93.894844"
       gradientUnits="userSpaceOnUse" />
    <radialGradient
       inkscape:collect="always"
       xlink:href="#linearGradient4699"
       id="radialGradient4707"
       cx="167.35905"
       cy="267.30383"
       fx="167.35905"
       fy="267.30383"
       r="19.682634"
       gradientTransform="matrix(1.4405816,-1.0261251,1.0451012,1.4672221,-349.50081,48.169031)"
       gradientUnits="userSpaceOnUse" />
    <radialGradient
       inkscape:collect="always"
       xlink:href="#linearGradient4699"
       id="radialGradient4713"
       gradientUnits="userSpaceOnUse"
       gradientTransform="matrix(0.38115388,-0.2714956,0.27651636,0.38820251,-92.57195,32.289126)"
       cx="167.35905"
       cy="267.30383"
       fx="167.35905"
       fy="267.30383"
       r="19.682634" />
    <radialGradient
       inkscape:collect="always"
       xlink:href="#linearGradient4725"
       id="radialGradient4717"
       gradientUnits="userSpaceOnUse"
       gradientTransform="matrix(-0.38115388,0.2714956,-0.27651636,-0.38820251,180.6011,144.89461)"
       cx="167.35905"
       cy="267.30383"
       fx="167.35905"
       fy="267.30383"
       r="19.682634" />
    <radialGradient
       inkscape:collect="always"
       xlink:href="#linearGradient4725"
       id="radialGradient4729"
       gradientUnits="userSpaceOnUse"
       gradientTransform="matrix(-0.38115388,0.2714956,-0.27651636,-0.38820251,180.46747,125.31712)"
       cx="167.35905"
       cy="267.30383"
       fx="167.35905"
       fy="267.30383"
       r="19.682634" />
    <radialGradient
       inkscape:collect="always"
       xlink:href="#linearGradient4745"
       id="radialGradient4735"
       gradientUnits="userSpaceOnUse"
       gradientTransform="matrix(0.38115388,-0.2714956,0.27651636,0.38820251,-74.33495,32.165008)"
       cx="167.35905"
       cy="267.30383"
       fx="167.35905"
       fy="267.30383"
       r="19.682634" />
    <radialGradient
       inkscape:collect="always"
       xlink:href="#linearGradient4753"
       id="radialGradient4737"
       gradientUnits="userSpaceOnUse"
       gradientTransform="matrix(-0.38115388,0.2714956,-0.27651636,-0.38820251,198.60461,144.73741)"
       cx="167.35905"
       cy="267.30383"
       fx="167.35905"
       fy="267.30383"
       r="19.682634" />
    <filter
       inkscape:collect="always"
       style="color-interpolation-filters:sRGB"
       id="filter4816"
       x="-0.084523041"
       width="1.1690461"
       y="-0.083483393"
       height="1.1669668">
      <feGaussianBlur
         inkscape:collect="always"
         stdDeviation="1.6309912"
         id="feGaussianBlur4818" />
    </filter>
    <linearGradient
       inkscape:collect="always"
       xlink:href="#linearGradient4824"
       id="linearGradient4826"
       x1="39.279072"
       y1="89.415657"
       x2="71.496597"
       y2="89.037674"
       gradientUnits="userSpaceOnUse"
       gradientTransform="translate(0.529167,1.0583333)" />
  </defs>
  <sodipodi:namedview
     id="base"
     pagecolor="#ffffff"
     bordercolor="#666666"
     borderopacity="1.0"
     inkscape:pageopacity="0.0"
     inkscape:pageshadow="2"
     inkscape:zoom="1"
     inkscape:cx="799.06632"
     inkscape:cy="1073.1998"
     inkscape:document-units="mm"
     inkscape:current-layer="layer1"
     showgrid="false"
     inkscape:lockguides="true"
     inkscape:window-width="1920"
     inkscape:window-height="986"
     inkscape:window-x="-11"
     inkscape:window-y="-11"
     inkscape:window-maximized="1"
     showguides="false" />
  <metadata
     id="metadata5">
    <rdf:RDF>
      <cc:Work
         rdf:about="">
        <dc:format>image/svg+xml</dc:format>
        <dc:type
           rdf:resource="http://purl.org/dc/dcmitype/StillImage" />
        <dc:title></dc:title>
      </cc:Work>
    </rdf:RDF>
  </metadata>
  <g
     inkscape:label="Layer 1"
     inkscape:groupmode="layer"
     id="layer1">
    <g
       id="g4845">
      <path
         inkscape:connector-curvature="0"
         id="path4502-6"
         d="m 45.621505,57.013576 a 14.183562,14.183562 0 0 0 -14.183111,14.18363 14.183562,14.183562 0 0 0 3.456635,9.25318 14.183562,14.183562 0 0 0 -3.456635,9.267653 14.183562,14.183562 0 0 0 14.183111,14.183651 14.183562,14.183562 0 0 0 9.409244,-3.58843 c 2.411304,2.17095 5.585968,3.49173 9.066631,3.49179 7.539892,1.6e-4 13.652293,-6.187915 13.652396,-13.821396 -0.0021,-3.550515 -0.740714,-7.018223 -2.8298,-9.863479 C 71.603014,75.6026 62.969069,74.982621 58.780908,76.434096 a 14.183562,14.183562 0 0 0 1.024229,-5.23689 14.183562,14.183562 0 0 0 -0.685231,-4.332552 c 1.133094,-0.430496 2.331955,-0.716926 3.557923,-0.864547 0.102934,-0.01241 0.204767,-0.0209 0.305409,-0.02585 2.944984,-0.144957 4.914013,2.821006 6.154145,4.553728 1.515139,2.116965 8.90571,0.534278 6.659025,-4.904611 -2.499476,-6.050856 -6.04725,-7.916743 -11.699028,-8.511108 -3.481583,6.1e-5 -6.65716,1.321369 -9.068697,3.493328 a 14.183562,14.183562 0 0 0 -9.407178,-3.592028 z m 31.964973,15.985069 -0.314192,1.527556 c 0.133058,-0.50279 0.237955,-1.012788 0.314192,-1.527556 z"
         style="display:inline;opacity:1;fill:url(#linearGradient4826);fill-opacity:1;stroke:none;stroke-width:0.48108995;stroke-linecap:round;stroke-miterlimit:4;stroke-dasharray:none;stroke-opacity:1;paint-order:markers stroke fill;filter:url(#filter4816)" />
      <path
         sodipodi:nodetypes="ccccccsccssssccccc"
         inkscape:connector-curvature="0"
         id="path4520"
         transform="scale(0.26458333)"
         d="m 236.25781,207.85742 c -28.49646,5e-4 -51.59726,23.38811 -51.59765,52.23828 0.008,13.41832 5.11656,26.31884 14.26562,36.02735 -9.13619,9.69482 -14.24337,22.57324 -14.26562,35.97265 3.9e-4,28.85017 23.10119,52.23778 51.59765,52.23828 28.49723,6e-4 51.59922,-23.38733 51.59961,-52.23828 -0.008,-13.41927 -2.80039,-26.52557 -10.69615,-37.27929 -15.79717,-21.51514 -63.53178,-19.65288 -69.30385,-8.19001 -5.42794,3.25853 -18.05024,-13.71823 -14.83398,-19.17132 7.10308,-16.16434 21.9271,-24.08623 37.86914,-26.00586 0.38904,-0.0469 0.77374,-0.0793 1.15412,-0.098 11.13066,-0.54787 18.57285,10.66307 23.25996,17.21194 5.72651,8.00113 33.65978,2.01834 25.16837,-18.53809 -9.44684,-22.86938 -22.85617,-29.9212 -44.21722,-32.16762 z m 50.98242,60.04297 -1.1875,5.77344 c 0.5029,-1.90031 0.89936,-3.82786 1.1875,-5.77344 z"
         style="opacity:1;fill:url(#linearGradient4659);fill-opacity:1;stroke:none;stroke-width:1.9625473;stroke-linecap:round;stroke-miterlimit:4;stroke-dasharray:none;stroke-opacity:1;paint-order:markers stroke fill" />
      <circle
         style="display:inline;opacity:1;fill:url(#linearGradient4667);fill-opacity:1;stroke:none;stroke-width:0.5;stroke-linecap:round;stroke-miterlimit:4;stroke-dasharray:none;stroke-opacity:1;paint-order:markers stroke fill"
         id="path4511-6"
         cx="62.049267"
         cy="88.414192"
         r="7.0158248" />
      <g
         id="g4589"
         style="display:inline;fill:url(#linearGradient4597);fill-opacity:1">
        <path
           transform="scale(0.26458333)"
           inkscape:connector-curvature="0"
           id="path4583"
           d="m 166.42773,207.48438 a 53.607165,53.607165 0 0 0 -53.60546,53.60742 53.607165,53.607165 0 0 0 13.06445,34.97265 53.607165,53.607165 0 0 0 -13.06445,35.02735 53.607165,53.607165 0 0 0 53.60546,53.60742 53.607165,53.607165 0 0 0 53.60743,-53.60742 53.607165,53.607165 0 0 0 -13.06446,-34.97461 53.607165,53.607165 0 0 0 13.06446,-35.02539 53.607165,53.607165 0 0 0 -53.60743,-53.60742 z"
           style="opacity:0.97000002;fill:url(#linearGradient4597);fill-opacity:1;stroke:none;stroke-width:1.81829274;stroke-linecap:round;stroke-miterlimit:4;stroke-dasharray:none;stroke-opacity:1;paint-order:markers stroke fill" />
        <circle
           r="7.0158248"
           cy="68.96302"
           cx="44.032658"
           id="circle4585"
           style="opacity:0.97000002;fill:url(#linearGradient4597);fill-opacity:1;stroke:none;stroke-width:0.5;stroke-linecap:round;stroke-miterlimit:4;stroke-dasharray:none;stroke-opacity:1;paint-order:markers stroke fill" />
        <path
           inkscape:connector-curvature="0"
           d=""
           style="opacity:0.97000002;fill:url(#linearGradient4597);fill-opacity:1;stroke:none;stroke-width:0.5;stroke-linecap:round;stroke-miterlimit:4;stroke-dasharray:none;stroke-opacity:1;paint-order:markers stroke fill"
           id="path4587"
           r="7.0158248"
           cy="88.545883"
           cx="43.965839" />
      </g>
      <path
         style="opacity:1;fill:url(#radialGradient4735);fill-opacity:1;stroke:none;stroke-width:0.5;stroke-linecap:round;stroke-miterlimit:4;stroke-dasharray:none;stroke-opacity:1;paint-order:markers stroke fill"
         d="m 62.169593,81.367408 a 7.0158247,7.0158247 0 0 0 -7.015593,7.016109 7.0158247,7.0158247 0 0 0 0.482658,2.554364 8.41899,8.41899 0 0 1 -0.01497,-0.416509 8.41899,8.41899 0 0 1 8.419123,-8.419127 8.41899,8.41899 0 0 1 1.528588,0.146246 7.0158247,7.0158247 0 0 0 -3.39979,-0.881083 z"
         id="path4731"
         inkscape:connector-curvature="0" />
      <g
         style="display:inline;fill:#ff6b6b;fill-opacity:1"
         id="g4518">
        <path
           style="opacity:1;fill:url(#linearGradient4651);fill-opacity:1;stroke:none;stroke-width:1.81829274;stroke-linecap:round;stroke-miterlimit:4;stroke-dasharray:none;stroke-opacity:1;paint-order:markers stroke fill"
           d="m 166.42773,207.48438 a 53.607165,53.607165 0 0 0 -53.60546,53.60742 53.607165,53.607165 0 0 0 13.06445,34.97265 53.607165,53.607165 0 0 0 -13.06445,35.02735 53.607165,53.607165 0 0 0 53.60546,53.60742 53.607165,53.607165 0 0 0 53.60743,-53.60742 53.607165,53.607165 0 0 0 -13.06446,-34.97461 53.607165,53.607165 0 0 0 13.06446,-35.02539 53.607165,53.607165 0 0 0 -53.60743,-53.60742 z"
           transform="scale(0.26458333)"
           id="path4502"
           inkscape:connector-curvature="0" />
        <circle
           style="opacity:1;fill:url(#linearGradient4551);fill-opacity:1;stroke:none;stroke-width:0.5;stroke-linecap:round;stroke-miterlimit:4;stroke-dasharray:none;stroke-opacity:1;paint-order:markers stroke fill"
           id="path4511"
           cx="44.032658"
           cy="68.96302"
           r="7.0158248" />
        <circle
           cx="43.965839"
           cy="88.545883"
           r="7.0158248"
           id="circle4513"
           style="opacity:1;fill:url(#linearGradient4561);fill-opacity:1;stroke:none;stroke-width:0.5;stroke-linecap:round;stroke-miterlimit:4;stroke-dasharray:none;stroke-opacity:1;paint-order:markers stroke fill" />
      </g>
      <path
         inkscape:connector-curvature="0"
         id="circle4685"
         transform="scale(0.26458333)"
         d="m 166.42188,234.13086 a 26.516503,26.516503 0 0 0 -26.51563,26.51758 26.516503,26.516503 0 0 0 1.82422,9.65429 31.819805,31.819805 0 0 1 -0.0566,-1.57421 31.819805,31.819805 0 0 1 31.82031,-31.82032 31.819805,31.819805 0 0 1 5.77734,0.55274 26.516503,26.516503 0 0 0 -12.8496,-3.33008 z"
         style="opacity:1;fill:url(#radialGradient4707);fill-opacity:1;stroke:none;stroke-width:1.88976383;stroke-linecap:round;stroke-miterlimit:4;stroke-dasharray:none;stroke-opacity:1;paint-order:markers stroke fill" />
      <path
         style="opacity:1;fill:url(#radialGradient4713);fill-opacity:1;stroke:none;stroke-width:0.5;stroke-linecap:round;stroke-miterlimit:4;stroke-dasharray:none;stroke-opacity:1;paint-order:markers stroke fill"
         d="M 43.932593,81.491526 A 7.0158247,7.0158247 0 0 0 36.917,88.507636 7.0158247,7.0158247 0 0 0 37.399658,91.062 8.41899,8.41899 0 0 1 37.384678,90.64549 8.41899,8.41899 0 0 1 45.803802,82.226364 8.41899,8.41899 0 0 1 47.33239,82.37261 7.0158247,7.0158247 0 0 0 43.9326,81.491526 Z"
         id="path4711"
         inkscape:connector-curvature="0" />
      <path
         inkscape:connector-curvature="0"
         id="path4715"
         d="m 44.096559,95.692208 a 7.0158247,7.0158247 0 0 0 7.015593,-7.01611 7.0158247,7.0158247 0 0 0 -0.482658,-2.554364 8.41899,8.41899 0 0 1 0.01498,0.41651 8.41899,8.41899 0 0 1 -8.419124,8.419126 8.41899,8.41899 0 0 1 -1.528588,-0.146246 7.0158247,7.0158247 0 0 0 3.39979,0.881084 z"
         style="opacity:1;fill:url(#radialGradient4717);fill-opacity:1;stroke:none;stroke-width:0.5;stroke-linecap:round;stroke-miterlimit:4;stroke-dasharray:none;stroke-opacity:1;paint-order:markers stroke fill" />
      <path
         style="opacity:1;fill:url(#radialGradient4729);fill-opacity:1;stroke:none;stroke-width:0.5;stroke-linecap:round;stroke-miterlimit:4;stroke-dasharray:none;stroke-opacity:1;paint-order:markers stroke fill"
         d="m 43.962924,76.114715 a 7.0158247,7.0158247 0 0 0 7.015593,-7.01611 7.0158247,7.0158247 0 0 0 -0.482658,-2.554364 8.41899,8.41899 0 0 1 0.01498,0.41651 8.41899,8.41899 0 0 1 -8.419124,8.419126 8.41899,8.41899 0 0 1 -1.528588,-0.146246 7.0158247,7.0158247 0 0 0 3.39979,0.881084 z"
         id="path4727"
         inkscape:connector-curvature="0" />
      <path
         inkscape:connector-curvature="0"
         id="path4733"
         d="m 62.100062,95.535 a 7.0158247,7.0158247 0 0 0 7.015593,-7.01611 7.0158247,7.0158247 0 0 0 -0.482658,-2.554364 8.41899,8.41899 0 0 1 0.01498,0.41651 8.41899,8.41899 0 0 1 -8.419124,8.419126 8.41899,8.41899 0 0 1 -1.528588,-0.146246 7.0158247,7.0158247 0 0 0 3.39979,0.881084 z"
         style="opacity:1;fill:url(#radialGradient4737);fill-opacity:1;stroke:none;stroke-width:0.5;stroke-linecap:round;stroke-miterlimit:4;stroke-dasharray:none;stroke-opacity:1;paint-order:markers stroke fill" />
    </g>
  </g>
</svg>
